<?xml version="1.0" standalone="no"?><!-- Generator: Gravit.io --><svg xmlns="http://www.w3.org/2000/svg" xmlns:xlink="http://www.w3.org/1999/xlink" style="isolation:isolate" viewBox="0 0 400 315" preserveAspectRatio="xMidYMid meet" style="overflow: visible;"><defs><clipPath id="_clipPath_e5exkhiOSRhDNQXbdLe7u2uhlJDivvdb"><rect width="400" height="315"/></clipPath></defs><g clip-path="url(#_clipPath_e5exkhiOSRhDNQXbdLe7u2uhlJDivvdb)"><g id="Group"><rect class="background" width="400" height="315" fill="#66BBFF"/><line x1="-80" y1="157.5" x2="480" y2="157.5" vector-effect="non-scaling-stroke" stroke-width="1" stroke="rgb(255,153,0)" stroke-linejoin="miter" stroke-linecap="square" stroke-miterlimit="3"/><line x1="-74.62" y1="212.125" x2="474.62" y2="102.875" vector-effect="non-scaling-stroke" stroke-width="1" stroke="rgb(255,153,0)" stroke-linejoin="miter" stroke-linecap="square" stroke-miterlimit="3"/><line x1="200" y1="437.5" x2="200" y2="-122.5" vector-effect="non-scaling-stroke" stroke-width="1" stroke="rgb(255,153,0)" stroke-linejoin="miter" stroke-linecap="square" stroke-miterlimit="3"/><line x1="254.625" y1="432.12" x2="145.375" y2="-117.12" vector-effect="non-scaling-stroke" stroke-width="1" stroke="rgb(255,153,0)" stroke-linejoin="miter" stroke-linecap="square" stroke-miterlimit="3"/><line x1="458.686" y1="264.651" x2="-58.686" y2="50.349" vector-effect="non-scaling-stroke" stroke-width="1" stroke="rgb(255,153,0)" stroke-linejoin="miter" stroke-linecap="square" stroke-miterlimit="3"/><line x1="474.62" y1="212.125" x2="-74.62" y2="102.875" vector-effect="non-scaling-stroke" stroke-width="1" stroke="rgb(255,153,0)" stroke-linejoin="miter" stroke-linecap="square" stroke-miterlimit="3"/><line x1="92.849" y1="416.186" x2="307.151" y2="-101.186" vector-effect="non-scaling-stroke" stroke-width="1" stroke="rgb(255,153,0)" stroke-linejoin="miter" stroke-linecap="square" stroke-miterlimit="3"/><line x1="145.375" y1="432.12" x2="254.625" y2="-117.12" vector-effect="non-scaling-stroke" stroke-width="1" stroke="rgb(255,153,0)" stroke-linejoin="miter" stroke-linecap="square" stroke-miterlimit="3"/><line x1="307.151" y1="416.186" x2="92.849" y2="-101.186" vector-effect="non-scaling-stroke" stroke-width="1" stroke="rgb(255,153,0)" stroke-linejoin="miter" stroke-linecap="square" stroke-miterlimit="3"/><line x1="355.56" y1="390.311" x2="44.44" y2="-75.311" vector-effect="non-scaling-stroke" stroke-width="1" stroke="rgb(255,153,0)" stroke-linejoin="miter" stroke-linecap="square" stroke-miterlimit="3"/><line x1="-58.686" y1="264.651" x2="458.686" y2="50.349" vector-effect="non-scaling-stroke" stroke-width="1" stroke="rgb(255,153,0)" stroke-linejoin="miter" stroke-linecap="square" stroke-miterlimit="3"/><line x1="-32.811" y1="313.06" x2="432.811" y2="1.94" vector-effect="non-scaling-stroke" stroke-width="1" stroke="rgb(255,153,0)" stroke-linejoin="miter" stroke-linecap="square" stroke-miterlimit="3"/><line x1="397.99" y1="355.49" x2="2.01" y2="-40.49" vector-effect="non-scaling-stroke" stroke-width="1" stroke="rgb(255,153,0)" stroke-linejoin="miter" stroke-linecap="square" stroke-miterlimit="3"/><line x1="432.811" y1="313.06" x2="-32.811" y2="1.94" vector-effect="non-scaling-stroke" stroke-width="1" stroke="rgb(255,153,0)" stroke-linejoin="miter" stroke-linecap="square" stroke-miterlimit="3"/><line x1="2.01" y1="355.49" x2="397.99" y2="-40.49" vector-effect="non-scaling-stroke" stroke-width="1" stroke="rgb(255,153,0)" stroke-linejoin="miter" stroke-linecap="square" stroke-miterlimit="3"/><line x1="44.44" y1="390.311" x2="355.56" y2="-75.311" vector-effect="non-scaling-stroke" stroke-width="1" stroke="rgb(255,153,0)" stroke-linejoin="miter" stroke-linecap="square" stroke-miterlimit="3"/><path d=" M 121.542 157.5 C 121.542 114.198 156.698 79.042 200 79.042 C 243.302 79.042 278.458 114.198 278.458 157.5 C 278.458 200.802 243.302 235.958 200 235.958 C 156.698 235.958 121.542 200.802 121.542 157.5 Z " fill="rgb(255,153,0)"/></g><path d=" M 352.225 30.942 C 369.863 34.115 383.265 49.556 383.265 68.102 C 383.265 88.939 366.349 105.855 345.512 105.855 C 336.991 105.855 329.125 103.026 322.799 98.262 C 324.979 98.651 327.222 98.855 329.512 98.855 C 350.349 98.855 367.265 81.939 367.265 61.102 C 367.265 48.787 361.356 37.841 352.225 30.942 Z " fill="rgb(93,93,93)"/></g></svg>